<svg xmlns="http://www.w3.org/2000/svg" viewBox="0 0 820 961" fill="currentColor" role="img" aria-label="RAPTAT">
  <path d="M768.85,757.2c-8.74-37.86-21.65-73-38.59-105.57-16.99-32.52-42.47-59.46-76.45-80.82-34.03-21.31-82.08-33.49-144.16-36.4v-11.65c47.52-5.82,88.53-15.77,123.05-29.85,34.41-14.03,62.61-31.79,84.46-53.15,21.84-21.31,37.86-45.33,48.05-72.08,10.19-26.7,15.29-55.09,15.29-85.18,0-38.78-6.36-73.54-18.93-104.11-12.62-30.58-30.58-56.98-53.88-79.36-23.3-22.33-50.77-40.77-82.27-55.33-31.55-14.56-66.5-25.48-104.84-32.76C482.18,3.64,441.65,0,398.98,0H0v961.06h235.9v-330.55h119.4c36.89,0,66.45,4.9,88.83,14.56,22.33,9.71,39.51,24.75,51.69,45.14,12.13,20.39,21.11,47.13,26.94,80.09l36.4,190.76h260.65l-50.97-203.86ZM467.18,435c-16.41,6.75-35.92,15.1-68.25,28.98l-52.61-144.16c-2.96-8.25-13.69-10.34-19.56-3.83l-99.99,111.06c-30.14-22.47-58.88-51.55-95.52-84.75l127.65-97.42-132.95-66.21c5.58-7.43,17.47-24.41,35.72-50.97,18.25-26.5,16.11-22.67,22.67-34.46l116.3,78.49,13.54-58.25c1.26-11.41,11.99-19.42,23.3-17.57,16.84,2.77,31.02,4.42,44.27,6.26,13.64,1.89,34.46,4.95,48.39,6.6,12.38,1.46,15.24,13.74,11.7,25.73l-18.64,57.76,140.81-43.64c7.18,42.52,13.64,56.89,22.28,97.42l-159.06,26.65,94.94,136.39-54.99,25.92Z"/>
</svg>
